<?xml version="1.0" encoding="utf-8"?>
<!-- Generator: Adobe Illustrator 22.1.0, SVG Export Plug-In . SVG Version: 6.00 Build 0)  -->
<svg version="1.1" id="Layer_1" xmlns="http://www.w3.org/2000/svg" xmlns:xlink="http://www.w3.org/1999/xlink" x="0px" y="0px"
	 viewBox="0 0 515.5 515.5" style="enable-background:new 0 0 515.5 515.5;" xml:space="preserve">
<style type="text/css">
	.st0{fill:none;stroke:#231F20;stroke-width:24;stroke-miterlimit:10;}
	.st1{fill:none;stroke:#231F20;stroke-width:41;stroke-miterlimit:10;}
</style>
<title>newthread</title>
<path class="st0" d="M503.5,257.8C503.5,122,393.5,12,257.7,12c-25.8,0-51.4,4-75.9,12c-32.4,14.4-67.5,21.8-103,21.8
	c-18.2,0-36.3-1.9-54-5.8c14,49.7,12.7,102.5-3.8,151.4c-6,21.6-9.1,43.9-9.1,66.4c0,135.7,110,245.8,245.8,245.8
	S503.5,393.5,503.5,257.8z"/>
<line class="st1" x1="401.4" y1="333.6" x2="114.1" y2="333.6"/>
<line class="st1" x1="401.4" y1="181.9" x2="114.1" y2="181.9"/>
<line class="st1" x1="401.4" y1="257.8" x2="114.1" y2="257.8"/>
</svg>
