<svg id="Layer_1" data-name="Layer 1" xmlns="http://www.w3.org/2000/svg" viewBox="0 0 515.51 515.51"><defs><style>.cls-1{fill:none;stroke:#231f20;stroke-miterlimit:10;stroke-width:24px;}</style></defs><title>newthread</title><path class="cls-1" d="M300,153.56c-135.73,0-245.76,110-245.76,245.76a245.3,245.3,0,0,0,12,75.88A253.5,253.5,0,0,1,88,578.17a253.28,253.28,0,0,1-5.76,54A255.95,255.95,0,0,1,233.61,636,245.84,245.84,0,0,0,300,645.08c135.72,0,245.75-110,245.75-245.76S435.75,153.56,300,153.56Z" transform="translate(-42.27 -141.56)"/><path class="cls-1" d="M416.18,361.39H338.84V284.05a27,27,0,0,0-26.9-26.9H289.52a27,27,0,0,0-26.9,26.9v77.34H185.28a27,27,0,0,0-26.91,26.9v22.42a27,27,0,0,0,26.91,26.9h77.34V515a27,27,0,0,0,26.9,26.9h22.42a27,27,0,0,0,26.9-26.9V437.61h77.34a27,27,0,0,0,26.9-26.9V388.29A27,27,0,0,0,416.18,361.39Z" transform="translate(-42.27 -141.56)"/></svg>